<?xml version="1.0" encoding="UTF-8"?><svg id="a" xmlns="http://www.w3.org/2000/svg" width="292.39mm" height="47.62mm" viewBox="0 0 828.83 135"><g><path d="M178.12,0h-40c8.53,0,15.51,6.98,15.51,15.51V119.49c0,8.53-6.98,15.51-15.51,15.51h40c8.53,0,15.51-6.98,15.51-15.51V15.51c0-8.53-6.98-15.51-15.51-15.51Z" fill="#0073b3"/><path d="M153.63,119.49V15.51c0-8.53-6.98-15.51-15.51-15.51H15.83C7.3,0,.33,6.98,.33,15.51v119.49H138.12c8.53,0,15.51-6.98,15.51-15.51Z" fill="#fff"/></g><path d="M38,27c0,3.11-1.05,5.73-3.16,7.85-2.1,2.12-4.67,3.18-7.67,3.18s-5.51-1.06-7.64-3.18c-2.13-2.12-3.19-4.73-3.19-7.85s1.06-5.6,3.19-7.72c2.13-2.12,4.67-3.18,7.64-3.18s5.57,1.06,7.67,3.18c2.11,2.12,3.16,4.69,3.16,7.72Zm-.58,91.23H16.86V43.61h20.57V118.24Z" fill="#393b41"/><path d="M77.33,27c0,3.11-1.05,5.73-3.16,7.85-2.11,2.12-4.67,3.18-7.67,3.18s-5.52-1.06-7.64-3.18c-2.13-2.12-3.19-4.73-3.19-7.85s1.07-5.6,3.19-7.72c2.12-2.12,4.67-3.18,7.64-3.18s5.57,1.06,7.67,3.18c2.1,2.12,3.16,4.69,3.16,7.72Zm-.58,91.23h-20.57V43.61h20.57V118.24Z" fill="#393b41"/><path d="M137.29,56.51h-19.6v38.26c0,3.89,.65,6.74,1.93,8.56,1.29,1.82,3.78,2.72,7.48,2.72,1.76,0,3.46-.14,5.09-.42,1.63-.28,3.14-.64,4.51-1.07v11.67c-2.19,.91-4.89,1.58-8.09,2.01-3.2,.43-6.35,.65-9.44,.65-6.79,0-12.16-2.19-16.12-6.58-3.95-4.39-5.93-10.69-5.93-18.91V56.38h-8.83v-10.63l9.61-.52,6.89-24.84h12.9v24.71h19.6v11.41Z" fill="#393b41"/><g><path d="M213.65,42.73V20.33h4.66v22.4h-4.66Z" fill="#fff"/><path d="M229.9,43.07c-3.23,0-5.54-1.05-7.14-2.11l1.8-3.37c1.39,.92,3.09,1.73,5.13,1.73,1.63,0,3.47-.61,3.47-2.31,0-2.96-5.44-3.47-8.16-6.56-.85-.99-1.43-2.24-1.43-3.98,0-3.4,2.69-6.39,7.62-6.39,2.38,0,4.35,.61,5.64,1.36l-.07,4.01c-1.9-1.02-3.5-1.63-5.34-1.63-1.67,0-2.96,.75-2.96,2.04,0,3.88,9.62,3.54,9.62,10.57,0,4.08-3.6,6.63-8.19,6.63Z" fill="#fff"/><path d="M258.06,24.13h-6.02v18.6h-4.69V24.13h-6.56v-3.81h18.32l-1.05,3.81Z" fill="#fff"/><path d="M262.54,42.73V20.33h4.66v22.4h-4.66Z" fill="#fff"/><path d="M288.31,24.13h-6.02v18.6h-4.69V24.13h-6.56v-3.81h18.32l-1.05,3.81Z" fill="#fff"/><path d="M309.84,40.49c-1.67,1.67-4.08,2.58-7.48,2.58s-5.75-.75-7.34-2.31c-1.5-1.46-2.21-3.67-2.21-6.29v-14.14h4.62v13.77c0,1.63,.51,2.82,1.26,3.67,.82,.92,2.18,1.39,3.74,1.39,1.8,0,3.09-.48,3.91-1.39,.78-.82,1.12-2.01,1.12-3.47v-13.97h4.66v13.67c0,2.72-.75,4.96-2.28,6.49Z" fill="#fff"/><path d="M333.26,24.13h-6.02v18.6h-4.69V24.13h-6.56v-3.81h18.32l-1.05,3.81Z" fill="#fff"/><path d="M355.12,39.74c-2.07,2.07-4.93,3.33-8.43,3.33-3.3,0-6.02-.95-7.99-2.72-2.31-2.07-3.57-5.1-3.57-8.57s1.16-6.26,3.23-8.36c2.04-2.07,4.9-3.33,8.33-3.33,3.67,0,6.73,1.29,8.74,3.47,1.87,2.04,2.82,4.83,2.82,7.96s-1.09,6.19-3.13,8.23Zm-8.43-15.84c-3.88,0-6.7,2.82-6.7,7.72s2.82,7.72,6.7,7.72,6.63-2.82,6.63-7.72-2.75-7.72-6.63-7.72Z" fill="#fff"/><path d="M372.12,42.73V20.33h4.66v22.4h-4.66Z" fill="#fff"/><path d="M397.55,24.13h-6.02v18.6h-4.69V24.13h-6.56v-3.81h18.32l-1.05,3.81Z" fill="#fff"/><path d="M413.43,42.73l-2.18-5.47h-7.62l-2.07,5.47h-4.59l8.77-22.51h3.54l9.14,22.51h-5Zm-5.13-13.56c-.37-1.12-.68-2.04-.82-2.75h-.03c-.14,.75-.44,1.67-.82,2.69l-1.67,4.42h4.86l-1.53-4.35Z" fill="#fff"/><path d="M421.69,42.73V20.33h4.62v18.56h7.89v3.84h-12.51Z" fill="#fff"/><path d="M437.54,42.73V20.33h4.66v22.4h-4.66Z" fill="#fff"/><path d="M461.91,42.73l-2.18-5.47h-7.62l-2.07,5.47h-4.59l8.77-22.51h3.54l9.15,22.51h-5Zm-5.13-13.56c-.37-1.12-.68-2.04-.82-2.75h-.03c-.14,.75-.44,1.67-.82,2.69l-1.67,4.42h4.86l-1.53-4.35Z" fill="#fff"/><path d="M486.66,42.73l-9.72-12.44c-.85-1.09-1.46-1.97-2.14-2.96h-.07c.07,.75,.07,2.11,.07,3.13v12.27h-4.62V20.33h4.69l9.38,11.97c.88,1.12,1.5,2.01,2.11,2.92h.07c-.07-1.05-.07-2.52-.07-3.47v-11.42h4.62v22.4h-4.32Z" fill="#fff"/><path d="M515.19,39.74c-2.07,2.07-4.93,3.33-8.43,3.33-3.3,0-6.02-.95-7.99-2.72-2.31-2.07-3.57-5.1-3.57-8.57s1.16-6.26,3.23-8.36c2.04-2.07,4.9-3.33,8.33-3.33,3.67,0,6.73,1.29,8.74,3.47,1.87,2.04,2.82,4.83,2.82,7.96s-1.09,6.19-3.13,8.23Zm-8.43-15.84c-3.88,0-6.7,2.82-6.7,7.72s2.82,7.72,6.7,7.72,6.63-2.82,6.63-7.72-2.75-7.72-6.63-7.72Z" fill="#fff"/><path d="M220.69,80.53h-7.04v-22.4h7.45c7.99,0,12.48,4.32,12.48,11.02s-5.13,11.39-12.88,11.39Zm.1-18.53h-2.48v14.69h2.55c5.54,0,7.72-3.5,7.72-7.41,0-4.42-2.65-7.28-7.79-7.28Z" fill="#fff"/><path d="M237.79,80.53v-22.4h4.66v22.4h-4.66Z" fill="#fff"/><path d="M270.36,61.93h-6.02v18.6h-4.69v-18.6h-6.56v-3.81h18.32l-1.05,3.81Z" fill="#fff"/><path d="M274.51,80.53v-22.4h12.99l-1.22,3.81h-7.1v5.23h7.14v3.84h-7.14v5.71h8.29v3.81h-12.95Z" fill="#fff"/><path d="M302.28,80.87c-7.31,0-11.46-5-11.46-11.32s4.83-11.66,12.48-11.66c2.28,0,4.39,.44,5.85,1.19l-.07,4.15c-1.97-1.16-3.84-1.56-5.61-1.56-5.27,0-7.58,3.67-7.58,7.55,0,4.28,2.75,7.65,7.17,7.65,2.07,0,3.84-.58,5.58-1.53l1.26,3.26c-2.62,1.63-5.1,2.28-7.62,2.28Z" fill="#fff"/><path d="M330.26,80.53l-9.72-12.44c-.85-1.09-1.46-1.97-2.14-2.96h-.07c.07,.75,.07,2.11,.07,3.13v12.27h-4.62v-22.4h4.69l9.38,11.97c.88,1.12,1.5,2.01,2.11,2.92h.07c-.07-1.05-.07-2.52-.07-3.47v-11.42h4.62v22.4h-4.32Z" fill="#fff"/><path d="M358.79,77.54c-2.07,2.07-4.93,3.33-8.43,3.33-3.3,0-6.02-.95-7.99-2.72-2.31-2.07-3.57-5.1-3.57-8.57s1.16-6.25,3.23-8.36c2.04-2.07,4.9-3.33,8.33-3.33,3.67,0,6.73,1.29,8.74,3.47,1.87,2.04,2.82,4.83,2.82,7.96s-1.09,6.19-3.13,8.23Zm-8.43-15.84c-3.88,0-6.7,2.82-6.7,7.72s2.82,7.72,6.7,7.72,6.63-2.82,6.63-7.72-2.75-7.72-6.63-7.72Z" fill="#fff"/><path d="M366.13,80.53v-22.4h4.62v18.56h7.89v3.84h-12.51Z" fill="#fff"/><path d="M401.02,77.54c-2.07,2.07-4.93,3.33-8.43,3.33-3.3,0-6.02-.95-7.99-2.72-2.31-2.07-3.57-5.1-3.57-8.57s1.16-6.25,3.23-8.36c2.04-2.07,4.9-3.33,8.33-3.33,3.67,0,6.73,1.29,8.74,3.47,1.87,2.04,2.82,4.83,2.82,7.96s-1.09,6.19-3.13,8.23Zm-8.43-15.84c-3.88,0-6.7,2.82-6.7,7.72s2.82,7.72,6.7,7.72,6.63-2.82,6.63-7.72-2.75-7.72-6.63-7.72Z" fill="#fff"/><path d="M418.77,80.87c-7.11,0-11.36-5.03-11.36-11.32s5.07-11.66,12.71-11.66c2.92,0,4.93,.51,6.73,1.12l-.07,4.21c-1.84-.95-3.84-1.56-6.08-1.56-5.95,0-8.23,3.6-8.23,7.55,0,4.32,2.82,7.92,7.48,7.92,1.29,0,2.48-.2,3.3-.54v-7.51h4.66v9.59c-2.35,1.26-5.44,2.21-9.14,2.21Z" fill="#fff"/><path d="M432.71,80.53v-22.4h4.66v22.4h-4.66Z" fill="#fff"/><path d="M457.08,80.53l-2.18-5.47h-7.62l-2.07,5.47h-4.59l8.77-22.51h3.54l9.14,22.51h-5Zm-5.13-13.56c-.37-1.12-.68-2.04-.82-2.75h-.03c-.14,.75-.44,1.67-.82,2.69l-1.67,4.42h4.86l-1.53-4.35Z" fill="#fff"/><path d="M228.68,118.33v-9.38h-10.37v9.38h-4.66v-22.4h4.66v9.01h10.37v-9.01h4.66v22.4h-4.66Z" fill="#b2b2b2"/><path d="M255.54,116.09c-1.67,1.67-4.08,2.58-7.48,2.58s-5.75-.75-7.34-2.31c-1.5-1.46-2.21-3.67-2.21-6.29v-14.14h4.62v13.77c0,1.63,.51,2.82,1.26,3.67,.82,.92,2.18,1.39,3.74,1.39,1.8,0,3.09-.48,3.91-1.39,.78-.82,1.12-2.01,1.12-3.47v-13.97h4.66v13.67c0,2.72-.75,4.96-2.28,6.49Z" fill="#b2b2b2"/><path d="M281.41,118.33v-12.38c0-.82,0-1.63,.07-2.41h-.07c-.24,.61-1.02,1.77-1.39,2.35l-4.15,6.36h-2.14l-4.62-6.53c-.44-.61-.99-1.29-1.43-2.18h-.07c.03,.85,.03,1.63,.03,2.28v12.51h-4.62v-22.4h4.28l5.88,8.4c.68,.92,1.16,1.7,1.63,2.52h.03c.38-.78,.85-1.63,1.53-2.65l5.37-8.26h4.28v22.4h-4.62Z" fill="#b2b2b2"/><path d="M305.76,118.33l-2.18-5.47h-7.62l-2.07,5.47h-4.59l8.77-22.51h3.54l9.14,22.51h-5Zm-5.13-13.56c-.37-1.12-.68-2.04-.82-2.75h-.03c-.14,.75-.44,1.67-.82,2.69l-1.67,4.42h4.86l-1.53-4.35Z" fill="#b2b2b2"/><path d="M330.51,118.33l-9.72-12.44c-.85-1.09-1.46-1.97-2.14-2.96h-.07c.07,.75,.07,2.11,.07,3.13v12.27h-4.62v-22.4h4.69l9.38,11.97c.88,1.12,1.5,2.01,2.11,2.92h.07c-.07-1.05-.07-2.52-.07-3.47v-11.42h4.62v22.4h-4.32Z" fill="#b2b2b2"/><path d="M359.03,115.34c-2.07,2.07-4.93,3.33-8.43,3.33-3.3,0-6.02-.95-7.99-2.72-2.31-2.07-3.57-5.1-3.57-8.57s1.16-6.26,3.23-8.36c2.04-2.07,4.9-3.33,8.33-3.33,3.67,0,6.73,1.29,8.74,3.47,1.87,2.04,2.82,4.83,2.82,7.96s-1.09,6.19-3.13,8.23Zm-8.43-15.84c-3.88,0-6.7,2.82-6.7,7.72s2.82,7.72,6.7,7.72,6.63-2.82,6.63-7.72-2.75-7.72-6.63-7.72Z" fill="#b2b2b2"/><path d="M366.38,118.33v-22.4h4.66v22.4h-4.66Z" fill="#b2b2b2"/><path d="M383.24,118.33h-7.04v-22.4h7.45c7.99,0,12.48,4.32,12.48,11.02s-5.13,11.39-12.88,11.39Zm.1-18.53h-2.48v14.69h2.55c5.54,0,7.72-3.5,7.72-7.41,0-4.42-2.65-7.28-7.79-7.28Z" fill="#b2b2b2"/><path d="M415.41,118.67c-3.23,0-5.54-1.05-7.14-2.11l1.8-3.37c1.39,.92,3.09,1.73,5.13,1.73,1.63,0,3.47-.61,3.47-2.31,0-2.96-5.44-3.47-8.16-6.56-.85-.99-1.43-2.24-1.43-3.98,0-3.4,2.69-6.39,7.62-6.39,2.38,0,4.35,.61,5.64,1.36l-.07,4.01c-1.9-1.02-3.5-1.63-5.34-1.63-1.67,0-2.96,.75-2.96,2.04,0,3.88,9.62,3.54,9.62,10.57,0,4.08-3.6,6.63-8.19,6.63Z" fill="#b2b2b2"/><path d="M427.61,118.33v-22.4h12.99l-1.22,3.81h-7.11v5.24h7.14v3.84h-7.14v5.71h8.29v3.81h-12.95Z" fill="#b2b2b2"/><path d="M461.37,118.33l-9.72-12.44c-.85-1.09-1.46-1.97-2.14-2.96h-.07c.07,.75,.07,2.11,.07,3.13v12.27h-4.62v-22.4h4.69l9.38,11.97c.88,1.12,1.5,2.01,2.11,2.92h.07c-.07-1.05-.07-2.52-.07-3.47v-11.42h4.62v22.4h-4.32Z" fill="#b2b2b2"/><path d="M476.95,118.67c-3.23,0-5.54-1.05-7.14-2.11l1.8-3.37c1.39,.92,3.09,1.73,5.13,1.73,1.63,0,3.47-.61,3.47-2.31,0-2.96-5.44-3.47-8.16-6.56-.85-.99-1.43-2.24-1.43-3.98,0-3.4,2.69-6.39,7.62-6.39,2.38,0,4.35,.61,5.64,1.36l-.07,4.01c-1.9-1.02-3.5-1.63-5.34-1.63-1.67,0-2.96,.75-2.96,2.04,0,3.88,9.62,3.54,9.62,10.57,0,4.08-3.6,6.63-8.19,6.63Z" fill="#b2b2b2"/><path d="M489.15,118.33v-22.4h4.66v22.4h-4.66Z" fill="#b2b2b2"/><path d="M515.47,118.33l-9.72-12.44c-.85-1.09-1.46-1.97-2.14-2.96h-.07c.07,.75,.07,2.11,.07,3.13v12.27h-4.62v-22.4h4.69l9.38,11.97c.88,1.12,1.5,2.01,2.11,2.92h.07c-.07-1.05-.07-2.52-.07-3.47v-11.42h4.62v22.4h-4.32Z" fill="#b2b2b2"/><path d="M535.36,118.67c-7.11,0-11.36-5.03-11.36-11.32s5.07-11.66,12.71-11.66c2.92,0,4.93,.51,6.73,1.12l-.07,4.22c-1.83-.95-3.84-1.56-6.08-1.56-5.95,0-8.23,3.6-8.23,7.55,0,4.32,2.82,7.92,7.48,7.92,1.29,0,2.48-.2,3.3-.54v-7.51h4.66v9.59c-2.35,1.26-5.44,2.21-9.14,2.21Z" fill="#b2b2b2"/><path d="M570.98,118.33l-2.18-5.47h-7.62l-2.07,5.47h-4.59l8.77-22.51h3.54l9.14,22.51h-5Zm-5.13-13.56c-.37-1.12-.68-2.04-.82-2.75h-.03c-.14,.75-.44,1.67-.82,2.69l-1.67,4.42h4.86l-1.53-4.35Z" fill="#b2b2b2"/><path d="M595.73,118.33l-9.72-12.44c-.85-1.09-1.46-1.97-2.14-2.96h-.07c.07,.75,.07,2.11,.07,3.13v12.27h-4.62v-22.4h4.69l9.38,11.97c.88,1.12,1.5,2.01,2.11,2.92h.07c-.07-1.05-.07-2.52-.07-3.47v-11.42h4.62v22.4h-4.32Z" fill="#b2b2b2"/><path d="M612.26,118.33h-7.04v-22.4h7.45c7.99,0,12.48,4.32,12.48,11.02s-5.13,11.39-12.88,11.39Zm.1-18.53h-2.48v14.69h2.55c5.54,0,7.72-3.5,7.72-7.41,0-4.42-2.65-7.28-7.79-7.28Z" fill="#b2b2b2"/><path d="M643.84,110.61h-.85v7.72h-4.66v-22.4h6.12c4.93,0,8.23,2.48,8.23,7.28,0,2.89-2.18,7.41-8.84,7.41Zm.14-10.81h-.99v7.28h1.02c2.75,0,4.01-1.39,4.01-3.71,0-2.01-1.33-3.57-4.05-3.57Z" fill="#b2b2b2"/><path d="M656.66,118.33v-22.4h12.99l-1.22,3.81h-7.11v5.24h7.14v3.84h-7.14v5.71h8.29v3.81h-12.95Z" fill="#b2b2b2"/><path d="M685.9,118.33c-3.4-5.81-4.76-8.33-5.58-8.64h-1.73v8.64h-4.66v-22.4h6.53c5.98,0,8.16,2.96,8.16,6.43,0,2.92-2.01,4.89-4.08,5.81v.04c1.12,.65,3.3,4.42,6.66,10.13h-5.3Zm-5.34-18.53h-1.97v6.49h1.97c1.97,0,3.43-1.5,3.43-3.43,0-1.73-1.22-3.06-3.43-3.06Z" fill="#b2b2b2"/><path d="M704.97,118.67c-7.31,0-11.46-5-11.46-11.32s4.83-11.66,12.48-11.66c2.28,0,4.38,.44,5.85,1.19l-.07,4.15c-1.97-1.16-3.84-1.56-5.61-1.56-5.27,0-7.58,3.67-7.58,7.55,0,4.28,2.75,7.65,7.17,7.65,2.07,0,3.84-.58,5.58-1.53l1.26,3.26c-2.62,1.63-5.1,2.28-7.62,2.28Z" fill="#b2b2b2"/><path d="M716.47,118.33v-22.4h12.99l-1.22,3.81h-7.11v5.24h7.14v3.84h-7.14v5.71h8.29v3.81h-12.95Z" fill="#b2b2b2"/><path d="M739.25,110.61h-.85v7.72h-4.66v-22.4h6.12c4.93,0,8.23,2.48,8.23,7.28,0,2.89-2.18,7.41-8.84,7.41Zm.14-10.81h-.99v7.28h1.02c2.75,0,4.01-1.39,4.01-3.71,0-2.01-1.33-3.57-4.05-3.57Z" fill="#b2b2b2"/><path d="M767.67,99.73h-6.02v18.6h-4.69v-18.6h-6.56v-3.81h18.32l-1.05,3.81Z" fill="#b2b2b2"/><path d="M771.82,118.33v-22.4h4.66v22.4h-4.66Z" fill="#b2b2b2"/><path d="M800.68,115.34c-2.07,2.07-4.93,3.33-8.43,3.33-3.3,0-6.02-.95-7.99-2.72-2.31-2.07-3.57-5.1-3.57-8.57s1.16-6.26,3.23-8.36c2.04-2.07,4.9-3.33,8.33-3.33,3.67,0,6.73,1.29,8.74,3.47,1.87,2.04,2.82,4.83,2.82,7.96s-1.09,6.19-3.13,8.23Zm-8.43-15.84c-3.88,0-6.7,2.82-6.7,7.72s2.82,7.72,6.7,7.72,6.63-2.82,6.63-7.72-2.75-7.72-6.63-7.72Z" fill="#b2b2b2"/><path d="M824.52,118.33l-9.72-12.44c-.85-1.09-1.46-1.97-2.14-2.96h-.07c.07,.75,.07,2.11,.07,3.13v12.27h-4.62v-22.4h4.69l9.38,11.97c.88,1.12,1.5,2.01,2.11,2.92h.07c-.07-1.05-.07-2.52-.07-3.47v-11.42h4.62v22.4h-4.32Z" fill="#b2b2b2"/></g><g><path d="M182.97,103.68h-8.46v9.57h8.46v3.63h-19.77v-3.63h8.16v-9.57h-8.16v-3.63h19.77v3.63Z" fill="#fff"/><path d="M183.27,90.33c0,2.79-.9,4.77-1.8,6.09l-2.67-1.47c.75-1.08,1.5-2.61,1.5-4.47,0-1.53-.63-3.27-2.28-3.27-2.82,0-3.33,4.8-6.03,7.2-.87,.78-2.01,1.29-3.54,1.29-2.94,0-5.43-2.31-5.43-6.45,0-2.1,.51-3.78,1.11-4.86l3.24,.06c-.84,1.53-1.38,3-1.38,4.62s.69,2.85,2.01,2.85c3.66,0,3.45-8.55,9.6-8.55,3.48,0,5.67,3.06,5.67,6.96Z" fill="#fff"/><path d="M176.07,75.18v.99h6.9v3.63h-19.77v-5.07c0-4.29,2.22-7.11,6.36-7.11,2.76,0,6.51,1.95,6.51,7.56Zm-9.81-.09v1.08h6.96v-1.14c0-2.58-1.38-3.75-3.57-3.75-1.92,0-3.39,1.26-3.39,3.81Z" fill="#fff"/></g></svg>